<svg width="14" height="18" viewBox="0 0 14 18" fill="none" xmlns="http://www.w3.org/2000/svg">
<path d="M8.47897 6.883C6.85297 6.279 5.96697 5.816 5.96697 5.08C5.96697 4.458 6.47797 4.103 7.38997 4.103C9.05697 4.103 10.769 4.745 11.948 5.323L12.614 1.212C11.679 0.766003 9.76697 0.0350037 7.12397 0.0350037C5.25397 0.0350037 3.69897 0.524003 2.58797 1.436C1.43297 2.39 0.830966 3.77 0.830966 5.436C0.830966 8.459 2.67797 9.748 5.67797 10.839C7.61397 11.527 8.25697 12.017 8.25697 12.773C8.25697 13.505 7.62797 13.928 6.49497 13.928C5.09197 13.928 2.77897 13.239 1.26397 12.35L0.589966 16.507C1.89397 17.239 4.29497 17.995 6.78697 17.995C8.76297 17.995 10.411 17.528 11.522 16.639C12.767 15.662 13.412 14.217 13.412 12.35C13.412 9.259 11.523 7.97 8.47697 6.882H8.47897V6.883Z" fill="white"/>
</svg>
