<?xml version="1.0" encoding="UTF-8"?><svg id="Layer_2" xmlns="http://www.w3.org/2000/svg" viewBox="0 0 18.62 18.62"><defs><style>.cls-1{fill:#ff5c39;}</style></defs><g id="Layer_1-2"><path class="cls-1" d="M9.31,0C4.18,0,0,4.18,0,9.31s4.18,9.31,9.31,9.31,9.31-4.18,9.31-9.31S14.44,0,9.31,0Zm.5,17.39v-4.41l1.63,1.62,.7-.71-2.83-2.81-2.84,2.81,.7,.71,1.63-1.62v4.41c-4.24-.26-7.61-3.78-7.61-8.08,0-1.3,.31-2.52,.86-3.61l3.82,2.21-2.21,.61,.26,.96,3.85-1.05-1.01-3.86-.97,.25,.58,2.22-3.82-2.21c1.45-2.19,3.94-3.63,6.76-3.63s5.3,1.45,6.76,3.63l-3.82,2.21,.58-2.22-.97-.25-1.02,3.86,3.85,1.05,.26-.96-2.22-.61,3.82-2.21c.54,1.09,.86,2.31,.86,3.61,0,4.3-3.37,7.82-7.61,8.08Z"/></g></svg>