<?xml version="1.0" encoding="UTF-8"?><svg id="Layer_2" xmlns="http://www.w3.org/2000/svg" viewBox="0 0 180 180"><defs><style>.cls-1{fill:#ff5c39;}</style></defs><g id="Layer_1-2"><path class="cls-1" d="M90,0C40.29,0,0,40.29,0,90s40.29,90,90,90,90-40.29,90-90S139.71,0,90,0Zm9,161.42v-28.99l11.01,11.01,12.73-12.73-32.74-32.74-32.74,32.74,12.73,12.73,11.01-11.01v28.99c-35.47-4.45-63-34.77-63-71.42,0-9.9,2.01-19.33,5.64-27.92l25.12,14.5-15.04,4.03,4.66,17.39,44.72-11.98-11.98-44.72-17.39,4.66,4.03,15.04-25.08-14.48c13.16-17.31,33.96-28.51,57.33-28.51s44.17,11.2,57.33,28.51l-25.08,14.48,4.03-15.04-17.39-4.66-11.98,44.72,44.72,11.99,4.66-17.39-15.04-4.03,25.12-14.5c3.63,8.59,5.64,18.03,5.64,27.92,0,36.65-27.53,66.97-63,71.42Z"/></g></svg>