<?xml version="1.0" encoding="UTF-8"?><svg id="Layer_2" xmlns="http://www.w3.org/2000/svg" viewBox="0 0 178.57 178.57"><defs><style>.cls-1{fill:#ff5c39;}</style></defs><g id="Layer_1-2"><path class="cls-1" d="M89.29,0C39.98,0,0,39.97,0,89.29s39.98,89.29,89.29,89.29,89.29-39.97,89.29-89.29S138.6,0,89.29,0Zm6.89,164.47v-33.49l11.28,11.16,9.68-9.8-27.82-27.61-27.88,27.61,9.68,9.8,11.28-11.16v33.49c-38.42-3.49-68.63-35.87-68.63-75.19,0-11.82,2.74-23.01,7.6-32.98l26.87,15.51-15.31,4.19,3.64,13.28,37.82-10.29-9.97-37.95-13.32,3.49,4.03,15.35-26.61-15.36c13.76-18.64,35.88-30.75,60.77-30.75s47.01,12.11,60.77,30.75l-26.61,15.36,4.03-15.35-13.32-3.49-10,37.9,37.85,10.34,3.64-13.28-15.31-4.19,26.87-15.51c4.86,9.97,7.6,21.16,7.6,32.98,0,39.32-30.21,71.7-68.63,75.19Z"/></g></svg>